<?xml version="1.0" encoding="utf-8"?>
<!-- Generator: Adobe Illustrator 24.3.0, SVG Export Plug-In . SVG Version: 6.00 Build 0)  -->
<svg version="1.0" id="Layer_1" xmlns="http://www.w3.org/2000/svg" xmlns:xlink="http://www.w3.org/1999/xlink" x="512" y="512"
	 viewBox="0 0 640 480" style="enable-background:new 0 0 640 480;" xml:space="preserve">
<style type="text/css">
	.st0{fill:#FFFFFF;}
	.st1{fill:#000;}
	.st2{fill:none;}
</style>
<g>
	<path class="st0" d="M481.5,461.4h-323c-33.1,0-59.9-26.8-59.9-59.9v-323c0-33.1,26.8-59.9,59.9-59.9h323
		c33.1,0,59.9,26.8,59.9,59.9v323C541.4,434.6,514.6,461.4,481.5,461.4z"/>
	<path class="st1" d="M348,132.6c9.4-5.3,20.4-6.4,31-5.9c11.8,1.7,23.4,6.2,32.4,14.2c1.7,1.4,3.3,3.7,5.8,3.1
		c8.6-1.5,16.7-4.8,24.6-8.3c3.3-1.5,6.5-3.4,9.8-4.9c-2.6,8.3-7,16.2-13.2,22.3c-3,3.2-6.3,6-9.8,8.6c3.8,0.4,7.4-1,11-1.7
		s7-2,10.5-3.1c3.2-1,6.1-2.7,9.4-3.4c-5.1,7.4-10.8,14.4-17.4,20.5c-3.4,3.5-7.4,6.2-11.1,9.2c0,5,0.6,10-0.5,14.9
		c-0.4,3.9-0.2,7.9-0.6,11.9c-0.9,5.2-1.8,10.4-2.8,15.6c-1.5,4.3-2.1,8.7-3.5,13c-1.4,4.9-3.5,9.5-5.2,14.3
		c-6.5,15-14.5,29.4-25,42c-5.6,7.3-12.4,13.6-19.1,20c-9.1,7.6-18.8,14.7-29.5,19.9c-14.2,7.4-29.4,13.2-45.3,15.4
		c-4.1,1.1-8.4,1-12.5,2c-4.8,0.1-9.4,1.2-14.2,1c-4.7-0.1-9.4,0.2-14.1-0.1c-4.6-1-9.3-0.4-13.9-1.5c-13.9-2-27.7-5.7-40.6-11.4
		c-5.9-2.4-11.5-5.5-17.2-8.4c-2.3-1.2-4.7-2.3-6.5-4.1c6.4-0.3,12.9,0.2,19.3-0.1c5.4,0.1,10.7-0.9,16-1.9
		c17.6-3.2,34-11.1,48.3-21.6c-6.9-0.7-13.8-1.9-20.2-4.7c-7.3-3.3-14.4-7.5-19.8-13.5c-5-5.4-9-11.7-11.8-18.5
		c-0.5-1.1-0.6-2.3-0.8-3.4c7.7,1,15.7,1.4,23.2-0.8c-3-1.5-6.5-2-9.5-3.6c-10.5-4.6-19.5-12.6-25.5-22.4c-4.1-6.3-6.4-13.5-8-20.8
		c-0.5-3.3-0.4-6.7-0.5-10c3.5,0.9,6.6,2.9,10.1,3.9c4.3,1.3,8.6,2.7,13.2,2.3c-3.7-4.4-8.6-7.9-11.9-12.7
		c-5.6-7.9-9.5-17.1-10.4-26.7c-0.9-3.8-0.9-7.8-0.5-11.7c0.6-2.4,0.9-4.9,1-7.4c1.1-6,3.8-11.6,6.3-17.1c2.7,2,4.8,4.8,7,7.4
		c10.1,11.2,22.1,20.4,34.7,28.6c5.5,3.2,11.1,6.4,16.9,9.1c11,4.9,22.5,8.9,34.3,11.3c8.3,1.9,16.8,2.6,25.2,3.3
		c-0.1-2.3-1-4.5-1.1-6.9c-0.2-4.2-0.2-8.4,0-12.6c1.1-10.5,5.6-20.5,11.9-28.9C333.5,141.9,340.2,136.2,348,132.6z"/>
</g>
<rect x="76.5" class="st2" width="487" height="480"/>
</svg>
